<svg width="236" height="51" viewBox="0 0 236 51" fill="none" xmlns="http://www.w3.org/2000/svg">
<ellipse cx="187.818" cy="29.6169" rx="10.4497" ry="8.15977" fill="#F1D63D"/>
<path d="M36.349 13.8148C36.349 15.5845 35.7731 16.9481 34.6213 17.9055C33.5067 18.8629 31.8162 19.5737 29.5497 20.0379C30.6272 20.6762 31.4632 21.4305 32.0577 22.3009C32.6893 23.1423 33.0051 24.0417 33.0051 24.9991C33.0051 27.4361 31.8162 29.2784 29.4383 30.526C27.0975 31.7735 24.1623 32.3973 20.6327 32.3973H16.397C14.0563 32.3973 12.8859 32.818 12.8859 33.6593C12.8859 34.0655 13.146 34.3991 13.6662 34.6603C14.1863 34.8924 15.0966 35.0084 16.397 35.0084H26.4288C29.6984 35.0084 32.1691 35.6757 33.8411 37.0103C35.5131 38.3448 36.349 40.1291 36.349 42.3631C36.349 44.0168 35.7917 45.4384 34.6771 46.6279C33.5624 47.8174 32.0577 48.7168 30.1628 49.3261C28.2679 49.9353 26.2058 50.24 23.9766 50.24H7.59141C6.25385 50.24 5.00917 49.9934 3.85738 49.5002C2.74274 49.0069 1.85103 48.3251 1.18225 47.4548C0.513468 46.6134 0.179077 45.6705 0.179077 44.626C0.179077 43.4946 0.624932 42.4646 1.51664 41.5362C2.40835 40.6368 3.52299 39.955 4.86055 39.4908C3.96884 38.9976 3.2629 38.4029 2.74274 37.7066C2.22258 37.0103 1.9625 36.2559 1.9625 35.4436C1.9625 34.3121 2.50124 33.2967 3.57872 32.3973C4.6562 31.4689 5.99376 30.8451 7.59141 30.526C6.14238 29.8007 4.99059 28.9738 4.13604 28.0454C3.28148 27.088 2.8542 26.0871 2.8542 25.0426C2.8542 22.3735 4.22892 20.4731 6.97836 19.3416C9.76495 18.1811 13.4433 17.6009 18.0133 17.6009C20.0196 17.6009 21.6358 17.6879 22.8619 17.862C24.6825 16.9626 25.8529 16.1503 26.373 15.425C26.9304 14.6706 27.209 14.1339 27.209 13.8148H36.349ZM17.9018 22.1268C16.6757 22.1268 15.6725 22.3735 14.8923 22.8667C14.112 23.3599 13.7219 24.0707 13.7219 24.9991C13.7219 25.9565 14.0749 26.6818 14.7808 27.175C15.5239 27.6392 16.5642 27.8713 17.9018 27.8713C19.2394 27.8713 20.2797 27.6392 21.0228 27.175C21.803 26.6818 22.1931 25.9565 22.1931 24.9991C22.1931 24.0417 21.803 23.3309 21.0228 22.8667C20.2797 22.3735 19.2394 22.1268 17.9018 22.1268ZM13.6104 41.101C12.7559 41.101 12.05 41.2751 11.4926 41.6233C10.9725 42.0004 10.7124 42.5226 10.7124 43.1899C10.7124 43.8572 10.9911 44.3939 11.5484 44.8001C12.1057 45.2063 12.793 45.4094 13.6104 45.4094H22.3046C23.122 45.4094 23.8094 45.2063 24.3667 44.8001C24.9612 44.423 25.2584 43.9007 25.2584 43.2334C25.2584 42.5662 24.9797 42.0439 24.4224 41.6668C23.8651 41.2896 23.1592 41.101 22.3046 41.101H13.6104Z" fill="white"/>
<path d="M52.2879 17.6009C57.4524 17.6009 61.5022 18.6308 64.4374 20.6907C67.4098 22.7216 68.896 25.6954 68.896 29.6121C68.896 33.5288 67.4098 36.5171 64.4374 38.5769C61.5022 40.6078 57.4524 41.6233 52.2879 41.6233C47.1234 41.6233 43.0736 40.6078 40.1384 38.5769C37.2031 36.5461 35.7355 33.5578 35.7355 29.6121C35.7355 25.6664 37.2031 22.6781 40.1384 20.6472C43.0736 18.6163 47.1234 17.6009 52.2879 17.6009ZM52.2879 23.4759C48.6467 23.4759 46.8262 25.1151 46.8262 28.3935V30.8741C46.8262 34.1235 48.6467 35.7482 52.2879 35.7482C55.9662 35.7482 57.8053 34.1235 57.8053 30.8741V28.3935C57.8053 25.1151 55.9662 23.4759 52.2879 23.4759Z" fill="white"/>
<path d="M86.1167 17.6009C91.2812 17.6009 95.331 18.6308 98.2662 20.6907C101.239 22.7216 102.725 25.6954 102.725 29.6121C102.725 33.5288 101.239 36.5171 98.2662 38.5769C95.331 40.6078 91.2812 41.6233 86.1167 41.6233C80.9522 41.6233 76.9023 40.6078 73.9671 38.5769C71.0319 36.5461 69.5643 33.5578 69.5643 29.6121C69.5643 25.6664 71.0319 22.6781 73.9671 20.6472C76.9023 18.6163 80.9522 17.6009 86.1167 17.6009ZM86.1167 23.4759C82.4755 23.4759 80.655 25.1151 80.655 28.3935V30.8741C80.655 34.1235 82.4755 35.7482 86.1167 35.7482C89.795 35.7482 91.6341 34.1235 91.6341 30.8741V28.3935C91.6341 25.1151 89.795 23.4759 86.1167 23.4759Z" fill="white"/>
<path d="M126.132 41.101L125.184 37.8371C123.029 40.3612 119.908 41.6233 115.821 41.6233C111.846 41.6233 108.781 40.6078 106.626 38.5769C104.471 36.5461 103.393 33.5433 103.393 29.5686C103.393 25.6229 104.471 22.6491 106.626 20.6472C108.781 18.6163 111.846 17.6009 115.821 17.6009C119.202 17.6009 121.952 18.4858 124.07 20.2555V9.54993H135.16V41.101H126.132ZM119.277 23.9982C116.081 23.9982 114.484 25.4923 114.484 28.4806V30.7871C114.484 33.7464 116.081 35.226 119.277 35.226C120.911 35.226 122.138 34.7763 122.955 33.8769C123.772 32.9775 124.181 31.8025 124.181 30.3519V28.9158C124.181 27.4651 123.772 26.2901 122.955 25.3908C122.138 24.4624 120.911 23.9982 119.277 23.9982Z" fill="white"/>
<path d="M149.706 20.2555C151.824 18.4858 154.573 17.6009 157.954 17.6009C161.93 17.6009 164.995 18.6163 167.15 20.6472C169.305 22.6491 170.382 25.6229 170.382 29.5686C170.382 33.5433 169.305 36.5461 167.15 38.5769C164.995 40.6078 161.93 41.6233 157.954 41.6233C153.867 41.6233 150.746 40.3612 148.591 37.8371L147.644 41.101H138.615V9.54993H149.706V20.2555ZM154.499 23.9982C152.864 23.9982 151.638 24.4624 150.82 25.3908C150.003 26.2901 149.594 27.4651 149.594 28.9158V30.3519C149.594 31.8025 150.003 32.9775 150.82 33.8769C151.638 34.7763 152.864 35.226 154.499 35.226C157.694 35.226 159.292 33.7464 159.292 30.7871V28.4806C159.292 25.4923 157.694 23.9982 154.499 23.9982Z" fill="white"/>
<path d="M187.603 17.6009C192.767 17.6009 196.817 18.6308 199.753 20.6907C202.725 22.7216 204.211 25.6954 204.211 29.6121C204.211 33.5288 202.725 36.5171 199.753 38.5769C196.817 40.6078 192.767 41.6233 187.603 41.6233C182.439 41.6233 178.389 40.6078 175.453 38.5769C172.518 36.5461 171.051 33.5578 171.051 29.6121C171.051 25.6664 172.518 22.6781 175.453 20.6472C178.389 18.6163 182.439 17.6009 187.603 17.6009ZM187.603 23.4759C183.962 23.4759 182.141 25.1151 182.141 28.3935V30.8741C182.141 34.1235 183.962 35.7482 187.603 35.7482C191.281 35.7482 193.12 34.1235 193.12 30.8741V28.3935C193.12 25.1151 191.281 23.4759 187.603 23.4759Z" fill="white"/>
<path d="M225.522 40.4047C223.999 43.6251 222.123 46.0622 219.893 47.7159C217.701 49.3986 214.618 50.24 210.642 50.24C208.227 50.24 206.091 49.9789 204.233 49.4566V44.2779H208.691C211.478 44.2779 213.131 43.2189 213.652 41.101L201.948 18.1231H213.874L219.503 33.3982H219.893L225.077 18.1231H236L225.522 40.4047Z" fill="white"/>
<ellipse cx="175.433" cy="12.0885" rx="4.64432" ry="3.62656" fill="#F1D63D"/>
<ellipse rx="4.45939" ry="3.85169" transform="matrix(0.931519 0.363693 -0.539245 0.842149 182.825 4.86555)" fill="#F1D63D"/>
<ellipse cx="193.623" cy="4.83543" rx="4.64432" ry="3.62656" fill="#F1D63D"/>
<ellipse cx="200.976" cy="12.0885" rx="4.64432" ry="3.62656" fill="#F1D63D"/>
</svg>
